<svg width="12" height="20" viewBox="0 0 12 20" fill="none" xmlns="http://www.w3.org/2000/svg">
<path d="M6 3.75C5.0061 3.75 4.19973 2.91016 4.19973 1.875C4.19973 0.839844 5.0061 0 6 0C6.9939 0 7.80027 0.839844 7.80027 1.875C7.80027 2.91016 6.9939 3.75 6 3.75ZM3.2996 15H2.632C2.22319 15 1.93439 14.582 2.06191 14.1758L3.49838 9.69141L2.22694 11.8945C1.88564 12.4844 1.14678 12.6758 0.580443 12.3203C0.0141087 11.9648 -0.169669 11.1953 0.171632 10.6055L2.18193 7.12109C2.94329 5.80469 4.3085 5 5.78247 5H6.21753C7.6915 5 9.0567 5.80469 9.81807 7.12109L11.8284 10.6055C12.1697 11.1953 11.9859 11.9648 11.4196 12.3203C10.8532 12.6758 10.1144 12.4844 9.77306 11.8945L8.50162 9.69531L9.93809 14.1758C10.0694 14.582 9.77681 15 9.368 15H8.7004V18.75C8.7004 19.4414 8.16407 20 7.50022 20C6.83637 20 6.30004 19.4414 6.30004 18.75V15H5.69995V18.75C5.69995 19.4414 5.16363 20 4.49978 20C3.83593 20 3.2996 19.4414 3.2996 18.75V15Z" fill="white"/>
</svg>
