<svg width="12" height="20" viewBox="0 0 12 20" fill="none" xmlns="http://www.w3.org/2000/svg">
<g clip-path="url(#clip0_171_1075)">
<path d="M7.80008 1.875C7.80008 2.91016 6.99383 3.75 6.00008 3.75C5.00633 3.75 4.20008 2.91016 4.20008 1.875C4.20008 0.839844 5.00633 0 6.00008 0C6.99383 0 7.80008 0.839844 7.80008 1.875ZM5.70008 13.75V18.75C5.70008 19.4414 5.16383 20 4.50008 20C3.83633 20 3.30008 19.4414 3.30008 18.75V10.0352L2.22758 11.8945C1.88633 12.4844 1.14758 12.6758 0.581333 12.3203C0.0150832 11.9648 -0.168667 11.1953 0.172583 10.6055L2.35883 6.81641C3.01133 5.6875 4.18133 4.99609 5.44508 4.99609H6.55883C7.82258 4.99609 8.99258 5.6875 9.64508 6.81641L11.8313 10.6055C12.1726 11.1953 11.9888 11.9648 11.4226 12.3203C10.8563 12.6758 10.1176 12.4844 9.77633 11.8945L8.70008 10.0352V18.75C8.70008 19.4414 8.16383 20 7.50008 20C6.83633 20 6.30008 19.4414 6.30008 18.75V13.75H5.70008Z" fill="white"/>
</g>
<defs>
<clipPath id="clip0_171_1075">
<rect width="12" height="20" fill="white"/>
</clipPath>
</defs>
</svg>
