<svg width="28" height="28" viewBox="0 0 28 28" fill="none" xmlns="http://www.w3.org/2000/svg">
<path d="M23.8533 12.9998C23.9467 13.5464 24 14.0931 24 14.6664C24 20.5464 19.2133 25.3331 13.3333 25.3331C7.45333 25.3331 2.66667 20.5464 2.66667 14.6664C2.66667 14.5998 2.68 14.5331 2.66667 14.4798C6.13333 13.1731 8.92 10.4931 10.32 7.07975C14.8267 12.5998 20.9467 12.0531 22.3067 11.8931L21.12 9.31975C20.9467 9.33309 14.96 9.82642 11.5467 4.17309C12.8933 3.95975 13.8267 3.97309 15 4.15975C18.36 2.62642 17.5733 2.97309 18.68 2.47975C17.0009 1.71766 15.1773 1.32655 13.3333 1.33309C5.97333 1.33309 0 7.30642 0 14.6664C0 22.0264 5.97333 27.9998 13.3333 27.9998C20.6933 27.9998 26.6667 22.0264 26.6667 14.6664C26.6667 12.7598 26.2667 10.9598 25.5467 9.31975L23.8533 12.9998ZM8.10667 5.37309C7.26534 7.88049 5.52745 9.98875 3.22667 11.2931C4.06799 8.78568 5.80588 6.67742 8.10667 5.37309Z" fill="#4182E2"/>
<path d="M17.3332 17.6663C18.2536 17.6663 18.9998 16.9201 18.9998 15.9997C18.9998 15.0792 18.2536 14.333 17.3332 14.333C16.4127 14.333 15.6665 15.0792 15.6665 15.9997C15.6665 16.9201 16.4127 17.6663 17.3332 17.6663Z" fill="#4182E2"/>
<path d="M9.33317 17.6663C10.2536 17.6663 10.9998 16.9201 10.9998 15.9997C10.9998 15.0792 10.2536 14.333 9.33317 14.333C8.4127 14.333 7.6665 15.0792 7.6665 15.9997C7.6665 16.9201 8.4127 17.6663 9.33317 17.6663Z" fill="#4182E2"/>
<path d="M27.9998 4.66667L24.7998 3.2L23.3332 0L21.8665 3.2L18.6665 4.66667L21.8665 6.13333L23.3332 9.33333L24.7998 6.13333L27.9998 4.66667Z" fill="#4182E2"/>
</svg>
