<svg width="22" height="22" viewBox="0 0 22 22" fill="none" xmlns="http://www.w3.org/2000/svg">
<path d="M22 11C22 11.0387 22 11.0773 22 11.116C21.9828 12.6844 20.5562 13.75 18.9879 13.75H14.7812C13.6426 13.75 12.7188 14.6738 12.7188 15.8125C12.7188 15.9586 12.7359 16.1004 12.7617 16.2379C12.852 16.6762 13.041 17.0973 13.2258 17.5227C13.4879 18.1156 13.7457 18.7043 13.7457 19.3273C13.7457 20.6938 12.8176 21.9355 11.4512 21.9914C11.3008 21.9957 11.1504 22 10.9957 22C4.92422 22 0 17.0758 0 11C0 4.92422 4.92422 0 11 0C17.0758 0 22 4.92422 22 11ZM5.5 12.375C5.5 11.6145 4.88555 11 4.125 11C3.36445 11 2.75 11.6145 2.75 12.375C2.75 13.1355 3.36445 13.75 4.125 13.75C4.88555 13.75 5.5 13.1355 5.5 12.375ZM5.5 8.25C6.26055 8.25 6.875 7.63555 6.875 6.875C6.875 6.11445 6.26055 5.5 5.5 5.5C4.73945 5.5 4.125 6.11445 4.125 6.875C4.125 7.63555 4.73945 8.25 5.5 8.25ZM12.375 4.125C12.375 3.36445 11.7605 2.75 11 2.75C10.2395 2.75 9.625 3.36445 9.625 4.125C9.625 4.88555 10.2395 5.5 11 5.5C11.7605 5.5 12.375 4.88555 12.375 4.125ZM16.5 8.25C17.2605 8.25 17.875 7.63555 17.875 6.875C17.875 6.11445 17.2605 5.5 16.5 5.5C15.7395 5.5 15.125 6.11445 15.125 6.875C15.125 7.63555 15.7395 8.25 16.5 8.25Z" fill="#4182E2"/>
</svg>
