<svg width="38" height="19" viewBox="0 0 38 19" fill="none" xmlns="http://www.w3.org/2000/svg">
<path d="M0 7.43025C1.73953 7.00229 3.24651 6.14637 4.62326 5.01135C6 3.87633 7.34884 2.7134 8.74419 1.60628C11.6558 -0.69167 16.0093 -0.477691 18.7256 2.05285C18.8186 2.13658 18.9116 2.21101 18.9674 2.26683C19.5442 1.84817 20.0744 1.39231 20.6698 1.05738C23.7023 -0.66376 27.2 -0.254408 29.8977 2.07146C31.2186 3.21578 32.5767 4.29499 33.9349 5.39279C34.9395 6.2115 36.0651 6.82553 37.3116 7.19767C37.5349 7.26279 37.7488 7.35582 38 7.43956C37.9535 7.50468 37.9256 7.5512 37.8791 7.58841C35.1628 10.0631 32.4651 12.5565 29.7116 15.0033C27.4791 16.9849 24.8558 18.2223 21.9256 18.734C17.5721 19.4875 13.5256 18.6409 9.83256 16.1848C8.13953 15.0591 6.74419 13.5984 5.24651 12.2494C3.52558 10.7144 1.83256 9.14209 0.12093 7.57911C0.0837209 7.5512 0.0372093 7.52329 0 7.50468C0 7.47677 0 7.45816 0 7.43025ZM6.33488 10.0538C6.53953 10.2399 6.69767 10.3981 6.85581 10.5376C8.30698 11.8122 9.6186 13.2356 11.2465 14.3055C14.5302 16.4453 18.1116 17.1245 21.9535 16.3337C24.1953 15.8778 26.214 14.9102 27.9535 13.4217C29.1814 12.3704 30.3721 11.254 31.5721 10.1748C31.6 10.1469 31.6093 10.1003 31.6279 10.0631C30.4186 10.0073 29.2279 9.92358 28.0465 9.90497C26.8465 9.88637 25.6465 9.88637 24.4465 9.9701C23.0512 10.0631 21.7209 10.4353 20.5488 11.2354C20.0093 11.6075 19.5256 12.0448 19.0047 12.4541C18.9953 12.4541 18.986 12.4541 18.9767 12.4541C18.7349 12.2494 18.4837 12.0355 18.2419 11.8215C16.9395 10.6679 15.3767 10.0817 13.6837 9.9887C11.8698 9.88637 10.0465 9.9701 8.23256 9.9794C7.62791 9.9794 7.01395 10.0259 6.33488 10.0538ZM5.17209 7.62562C6.13953 7.62562 7.13488 7.65354 8.13023 7.61632C10.1395 7.5605 12.1581 7.38373 14.1674 7.65353C15.814 7.87682 17.3767 8.33269 18.7721 9.26303C18.9581 9.39328 19.0884 9.37468 19.2651 9.25373C20.8 8.22105 22.5395 7.70936 24.3535 7.61632C26.2233 7.52329 28.1116 7.61632 29.9907 7.63493C30.9581 7.64423 31.9256 7.63493 32.9209 7.63493C32.8744 7.57911 32.8651 7.5512 32.8372 7.53259C31.2744 6.25802 29.7209 4.97414 28.1581 3.70887C26.4093 2.29474 24.4837 1.97842 22.4 2.83434C21.414 3.23439 20.6419 3.92285 20.0372 4.79737C19.7116 5.27185 19.3767 5.73702 19.014 6.24871C18.6419 5.71841 18.307 5.22533 17.9628 4.75085C16.1116 2.1831 12.6047 1.56907 10.214 3.45767C8.49302 4.79737 6.83721 6.23011 5.17209 7.62562Z" fill="#4182E2"/>
</svg>
