<svg width="20" height="26" viewBox="0 0 20 26" fill="none" xmlns="http://www.w3.org/2000/svg">
<path d="M14.7425 11.2543C15.1575 10.9287 15.5525 10.5832 15.9262 10.2143L16.0963 10.0385C16.45 9.67571 16.7862 9.2981 17.0975 8.90067L17.175 8.80781C17.4937 8.39305 17.7825 7.956 18.0525 7.50905L18.2125 7.23667C18.4688 6.786 18.7062 6.32419 18.9112 5.84629C18.9362 5.7881 18.955 5.72867 18.98 5.67048C19.1637 5.22352 19.3225 4.76543 19.4587 4.29743C19.485 4.21076 19.5137 4.1241 19.5375 4.03619C19.6712 3.53848 19.7738 3.02962 19.8512 2.51457C19.8675 2.40686 19.8775 2.2979 19.8913 2.18895C19.955 1.6541 20 1.11305 20 0.56581V0H17.5V0.56581C17.5 0.793619 17.4613 1.01276 17.4475 1.2381H2.5275C2.515 1.014 2.5 0.792381 2.5 0.56581V0H0V0.56581C0 6.60276 4.08625 11.9786 9.94 13.6512L9.975 13.6624C13.5762 14.6813 16.295 17.5574 17.1863 21.0476H2.81375L3.8125 18.5714H13.3212C12.6329 17.5874 11.7568 16.7462 10.7425 16.0952H5.7425C6.29875 15.5703 6.9375 15.137 7.60625 14.7457C6.69311 14.4291 5.82051 14.0078 5.00625 13.4903C1.9375 15.8625 0 19.5359 0 23.5424V26H2.5V23.5424L2.50125 23.5238H17.4988L17.5 23.5424V26H20V23.5424C20 18.8005 17.3013 14.5006 13.1962 12.3129C13.6603 12.0381 14.1077 11.7367 14.5362 11.4103C14.605 11.3583 14.6737 11.3088 14.7425 11.2543ZM13.255 9.26838C12.3766 9.96649 11.3968 10.5292 10.3488 10.9373C10.2338 10.9819 10.1175 11.0215 10.0013 11.0636C8.52794 10.5471 7.18024 9.73059 6.045 8.66667H13.91C13.6962 8.866 13.495 9.07895 13.2638 9.26095L13.255 9.26838ZM17.0238 3.71429C17.0175 3.7341 17.015 3.75514 17.0088 3.77495L16.9538 3.9619C16.7792 4.49367 16.5648 5.0118 16.3125 5.512C16.1925 5.74724 16.0462 5.9639 15.9113 6.19048H4.06125C3.59903 5.41149 3.23347 4.58008 2.9725 3.71429H17.0238Z" fill="#4182E2"/>
</svg>
