<svg width="43" height="16" viewBox="0 0 43 16" fill="none" xmlns="http://www.w3.org/2000/svg">
<g opacity="0.5" clip-path="url(#clip0_171_1089)">
<path fill-rule="evenodd" clip-rule="evenodd" d="M36.7921 2.86412C42.0656 4.74173 41.7997 7.86873 34.486 9.67965C32.9883 10.0517 31.5046 10.3956 29.7129 10.6062V12.7365C31.7776 12.4803 33.5342 12.0065 35.2594 11.5853C45.8869 9.00231 44.6796 4.23986 37.0301 1.96919C32.4074 0.60047 26.651 0.0143767 21.8569 0.000338493C17.3532 -0.0136997 12.2617 0.407445 7.849 1.53752C-12.7027 6.80183 12.4296 13.9367 22.6652 13.5437V16.0003L26.2241 12.4276V11.6696L22.6652 8.10387V10.7255C17.4407 10.7711 -7.61462 7.59148 8.07996 2.47808C11.7018 1.29887 18.1021 0.951424 21.9479 0.958443C26.2206 0.965462 32.7609 1.42872 36.7921 2.86412Z" fill="white"/>
</g>
<defs>
<clipPath id="clip0_171_1089">
<rect width="43" height="16" fill="white"/>
</clipPath>
</defs>
</svg>
